<svg width="40" height="40" viewBox="0 0 40 40" fill="none" xmlns="http://www.w3.org/2000/svg">
<g clip-path="url(#clip0)">
<path d="M19.9899 3.53337e-07C17.6887 3.53337e-07 15.8232 1.86547 15.8232 4.16664C15.8271 4.36656 15.8456 4.56602 15.8782 4.76328C15.9383 5.17617 16.2944 5.48094 16.7116 5.47664C16.7911 5.47656 16.8702 5.46531 16.9466 5.44328C18.9379 4.85414 21.0571 4.85414 23.0482 5.44328C23.285 5.50188 23.5355 5.45641 23.7366 5.31828C23.942 5.17781 24.0792 4.95781 24.115 4.71164C24.1449 4.53086 24.1616 4.3482 24.165 4.165C24.164 1.86383 22.2978 -0.000937147 19.9966 3.53337e-07C19.9943 3.53337e-07 19.9922 3.53337e-07 19.9899 3.53337e-07Z" fill="#F57C00"/>
<path d="M24.9901 33.3334H14.9901C14.5299 33.3334 14.1567 33.7065 14.1567 34.1667C14.1567 37.3884 16.7684 40.0001 19.9901 40.0001C23.2118 40.0001 25.8235 37.3885 25.8235 34.1667C25.8235 33.7064 25.4504 33.3334 24.9901 33.3334Z" fill="#FFA000"/>
<path d="M35.5249 30.3483C35.2616 29.7667 34.9299 29.1167 34.5633 28.4C32.308 24.5798 31.0239 20.265 30.8233 15.8333C30.8233 9.22831 27.3233 4.38167 21.9099 3.48667C18.751 2.97894 15.5311 3.91761 13.1399 6.04331C10.493 8.35394 9.02445 11.7317 9.13992 15.2433C9.07093 19.886 7.78851 24.4297 5.41992 28.4233C5.06156 29.1299 4.73492 29.7733 4.47491 30.3467C3.72382 32.0032 4.45773 33.955 6.11429 34.7061C6.54632 34.9021 7.01554 35.0023 7.48992 35H32.5166C34.3354 35.0055 35.8143 33.5354 35.8197 31.7166C35.8211 31.2448 35.7211 30.7782 35.5265 30.3484H35.5249V30.3483Z" fill="#FFC107"/>
<path d="M8.8782 31.6667C8.41797 31.6667 8.04484 31.2935 8.04492 30.8333C8.04492 30.7037 8.07516 30.5759 8.1332 30.46L8.40156 29.9334C10.8908 25.6358 12.2941 20.796 12.4899 15.8334C12.4899 11.605 14.4549 6.66675 19.9899 6.66675C20.4502 6.66675 20.8233 7.03987 20.8233 7.50011C20.8233 7.96034 20.4502 8.33347 19.9899 8.33347C14.5766 8.33347 14.1566 14.0735 14.1566 15.8335C13.9706 21.0613 12.5038 26.1634 9.88492 30.6918L9.62492 31.2068C9.48336 31.4892 9.19422 31.6673 8.8782 31.6667Z" fill="#FFD54F"/>
</g>
<defs>
<clipPath id="clip0">
<rect width="40" height="40" fill="white"/>
</clipPath>
</defs>
</svg>
